# xmcd
#
# Track frame offsets:
#	150
#	20075
#	34587
#	45831
#	63549
#	78674
#	93501
#	113326
#	127974
#	142107
#
# Disc length: 2179 seconds
#
# Revision: 1
# Processed by: cddbd v1.5.2PL0 Copyright (c) Steve Scherf et al.
# Submitted via: audiograbber 1.83.01
#
DISCID=7d08810a
DTITLE=Zbigniew Wodecki - Gwiazdy polskiej piosenki
DYEAR=1900
DGENRE=Ballad
TTITLE0=Zacznij od Bacha
TTITLE1=Isolda
TTITLE2=Oczarowanie
TTITLE3=Z Toba chce ogladac swiat
TTITLE4=Chalupy welcome to
TTITLE5=Kochaj mnie
TTITLE6=Lubie wracac tam, gdzie bylem
TTITLE7=Mona Lisa
TTITLE8=Opowiadaj mi tak
TTITLE9=Nad wszystko usmiech Twoj
EXTD=
EXTT0=
EXTT1=
EXTT2=
EXTT3=
EXTT4=
EXTT5=
EXTT6=
EXTT7=
EXTT8=
EXTT9=
PLAYORDER=
